<svg width="30" height="30" viewBox="0 0 30 30" fill="none" xmlns="http://www.w3.org/2000/svg">
<path d="M22.6348 8.4375H4.55273C3.07386 8.4375 1.875 9.63636 1.875 11.1152V18.8848C1.875 20.3636 3.07386 21.5625 4.55273 21.5625H22.6348C24.1136 21.5625 25.3125 20.3636 25.3125 18.8848V11.1152C25.3125 9.63636 24.1136 8.4375 22.6348 8.4375Z" stroke="white" stroke-width="2" stroke-miterlimit="10" stroke-linecap="square"/>
<path d="M21.9329 11.656H5.25537C5.12593 11.656 5.021 11.7609 5.021 11.8904V18.1095C5.021 18.239 5.12593 18.3439 5.25537 18.3439H21.9329C22.0624 18.3439 22.1673 18.239 22.1673 18.1095V11.8904C22.1673 11.7609 22.0624 11.656 21.9329 11.656Z" fill="white" stroke="white" stroke-width="2" stroke-miterlimit="10" stroke-linecap="square"/>
<path d="M28.125 12.8127V17.1874" stroke="white" stroke-width="2" stroke-miterlimit="10" stroke-linecap="round"/>
</svg>
