<svg width="30" height="30" viewBox="0 0 30 30" fill="none" xmlns="http://www.w3.org/2000/svg">
  <path fill-rule="evenodd" clip-rule="evenodd" d="M2.5 7.5C2.5 5.42894 4.17894 3.75 6.25 3.75H23.75C25.8211 3.75 27.5 5.42894 27.5 7.5V22.5C27.5 24.5711 25.8211 26.25 23.75 26.25H6.25C4.17894 26.25 2.5 24.5711 2.5 22.5V7.5ZM6.25 6.25C5.55965 6.25 5 6.80965 5 7.5V8.75H25V7.5C25 6.80965 24.4404 6.25 23.75 6.25H6.25ZM5 22.5V11.25H25V22.5C25 23.1904 24.4404 23.75 23.75 23.75H6.25C5.55965 23.75 5 23.1904 5 22.5ZM9.63389 14.1161C9.14572 13.628 8.35427 13.628 7.86611 14.1161C7.37796 14.6043 7.37796 15.3957 7.86611 15.8839L9.48224 17.5L7.86611 19.1161C7.37796 19.6043 7.37796 20.3957 7.86611 20.8839C8.35427 21.372 9.14572 21.372 9.63389 20.8839L12.1339 18.3839C12.622 17.8957 12.622 17.1043 12.1339 16.6161L9.63389 14.1161Z" fill="white"/>
  </svg>
