<svg width="30" height="28" viewBox="0 0 30 28" fill="none" xmlns="http://www.w3.org/2000/svg">
<path d="M25.1164 27.2735H4.88353C3.12085 27.2735 1.54228 26.3621 0.661007 24.8356C-0.220262 23.3092 -0.220409 21.4864 0.661007 19.9598L10.7775 2.43783C11.6588 0.911417 13.2374 0 15 0C16.7627 0 18.3413 0.911417 19.2226 2.43783L29.3389 19.9598C30.2204 21.4864 30.2204 23.3091 29.3389 24.8356C28.4575 26.3622 26.8789 27.2735 25.1164 27.2735ZM15 1.40127C13.7439 1.40127 12.6191 2.05077 11.991 3.13846L1.87458 20.6605C1.24654 21.7483 1.24664 23.0472 1.87458 24.135C2.50252 25.2228 3.62746 25.8722 4.88358 25.8722H25.1163C26.3724 25.8722 27.4972 25.2227 28.1253 24.135C28.7533 23.0473 28.7533 21.7483 28.1253 20.6605L18.0089 3.13846C17.381 2.05063 16.2562 1.40127 15 1.40127ZM27.2299 20.7397L17.4754 3.84429C16.9588 2.9493 16.0334 2.41513 15 2.41513C13.9666 2.41513 13.0412 2.94944 12.5245 3.84429L2.76997 20.7397C2.25316 21.6347 2.2533 22.7032 2.76997 23.5981C3.28663 24.4929 4.21202 25.0272 5.24549 25.0272H24.7545C25.788 25.0272 26.7134 24.4929 27.2301 23.5981C27.7467 22.7032 27.7466 21.6345 27.2299 20.7397ZM13.2334 9.11652C13.2334 8.1425 14.0259 7.35006 14.9999 7.35006C15.9739 7.35006 16.7664 8.1425 16.7664 9.11652V14.8492C16.7664 15.8232 15.9739 16.6156 14.9999 16.6156C14.0259 16.6156 13.2334 15.8232 13.2334 14.8492V9.11652ZM14.9999 21.8262C14.0018 21.8262 13.1897 21.0142 13.1897 20.0161C13.1897 19.0179 14.0018 18.2059 14.9999 18.2059C15.998 18.2059 16.8101 19.0179 16.8101 20.0161C16.8101 21.0142 15.998 21.8262 14.9999 21.8262Z" fill="white"/>
</svg>
