<svg width="30" height="30" viewBox="0 0 30 30" fill="none" xmlns="http://www.w3.org/2000/svg">
<path d="M16.2552 14.4726C16.1907 14.3552 16.1102 14.2474 16.0161 14.1521L14.9415 13.0921C14.8311 12.9798 14.7008 12.889 14.5571 12.8244C14.331 12.7235 14.0798 12.6935 13.8363 12.7381C13.5929 12.7828 13.3686 12.9001 13.193 13.0746C12.8204 13.4414 12.1384 14.1105 10.9079 15.3263C8.55476 17.6543 4.18542 21.556 2.20964 23.2201C2.1101 23.3034 2.02893 23.4064 1.97129 23.5227C1.91365 23.639 1.88079 23.766 1.87478 23.8957C1.86878 24.0254 1.88977 24.1549 1.93641 24.276C1.98306 24.3971 2.05435 24.5072 2.14578 24.5994L4.43093 26.9097C4.52295 27.002 4.63308 27.0743 4.75438 27.122C4.87568 27.1697 5.00554 27.1918 5.13579 27.1869C5.26605 27.182 5.39388 27.1502 5.51125 27.0936C5.62863 27.0369 5.73302 26.9565 5.81785 26.8576C7.53113 24.8437 11.4604 20.4709 13.7866 18.1722C14.9813 16.9968 15.651 16.3218 16.0302 15.9492C16.2182 15.758 16.3411 15.5124 16.3815 15.2473C16.4219 14.9822 16.3777 14.7111 16.2552 14.4726V14.4726Z" stroke="white" stroke-width="2" stroke-linecap="round" stroke-linejoin="round"/>
<path d="M28.0331 11.7774L26.0228 9.78521C25.9921 9.75455 25.9555 9.73048 25.9152 9.71446C25.8749 9.69844 25.8317 9.69081 25.7884 9.69204C25.7451 9.69131 25.7021 9.69917 25.6619 9.71516C25.6216 9.73115 25.585 9.75496 25.554 9.78521C25.4817 9.85793 25.3936 9.91303 25.2966 9.94625C25.1995 9.97948 25.0962 9.98993 24.9944 9.97681C24.7319 9.9481 24.4524 9.86665 24.272 9.69204C23.8618 9.29009 24.3358 8.49907 23.9749 7.99282C23.5627 7.43883 23.1107 6.91557 22.6226 6.4272C22.2089 6.01704 20.5829 4.46607 17.8442 3.34927C16.9703 2.99123 16.0348 2.80732 15.0903 2.80786C13.5464 2.80786 12.3593 3.49693 11.9263 3.89243C11.5817 4.20415 11.2231 4.69927 11.2231 4.69927C11.4302 4.62378 11.6417 4.56116 11.8565 4.51177C12.3045 4.41578 12.7641 4.38636 13.2206 4.42446C14.1323 4.50005 15.231 4.92778 15.8204 5.39068C16.7702 6.15239 17.1786 7.17134 17.2425 8.48618C17.2894 9.46411 16.3501 10.6987 15.4589 11.7053C15.3805 11.7938 15.3392 11.9091 15.3435 12.0273C15.3479 12.1455 15.3976 12.2574 15.4823 12.3399L16.7269 13.5838C16.8136 13.6695 16.9302 13.718 17.052 13.7191C17.1739 13.7202 17.2914 13.6738 17.3796 13.5897C18.1958 12.7981 19.2013 11.9215 19.7714 11.5706C20.3415 11.2196 20.8015 11.1206 21.0224 11.0965C21.4564 11.0545 21.8928 11.1491 22.2704 11.3672C22.3369 11.4049 22.3977 11.4518 22.4509 11.5067C22.8294 11.8911 22.8065 12.5192 22.4216 12.8977L22.3044 13.0084C22.2739 13.0384 22.2497 13.0742 22.2332 13.1136C22.2167 13.1531 22.2082 13.1954 22.2082 13.2381C22.2082 13.2809 22.2167 13.3232 22.2332 13.3626C22.2497 13.4021 22.2739 13.4378 22.3044 13.4678L24.3147 15.46C24.3456 15.4904 24.3822 15.5143 24.4225 15.5302C24.4628 15.5461 24.5058 15.5537 24.5491 15.5526C24.6364 15.5538 24.7206 15.5206 24.7835 15.46L28.0331 12.2461C28.093 12.1828 28.1264 12.0989 28.1264 12.0118C28.1264 11.9246 28.093 11.8407 28.0331 11.7774V11.7774Z" stroke="white" stroke-width="2" stroke-linecap="round" stroke-linejoin="round"/>
</svg>
