<svg width="30" height="30" viewBox="0 0 30 30" fill="none" xmlns="http://www.w3.org/2000/svg">
<path d="M10.3125 24.375V28.125" stroke="white" stroke-width="2" stroke-linecap="round" stroke-linejoin="round"/>
<path d="M4.6875 1.875H15.9375C16.4348 1.875 16.9117 2.07254 17.2633 2.42417C17.615 2.77581 17.8125 3.25272 17.8125 3.75V27.8906C17.8125 27.9528 17.7878 28.0124 17.7439 28.0564C17.6999 28.1003 17.6403 28.125 17.5781 28.125H2.8125V3.75C2.8125 3.25272 3.01004 2.77581 3.36167 2.42417C3.71331 2.07254 4.19022 1.875 4.6875 1.875V1.875Z" stroke="white" stroke-width="2" stroke-linecap="round" stroke-linejoin="round"/>
<path d="M18.75 11.25H25.3125C25.8098 11.25 26.2867 11.4475 26.6383 11.7992C26.99 12.1508 27.1875 12.6277 27.1875 13.125V28.125H17.8125V12.1875C17.8125 11.9389 17.9113 11.7004 18.0871 11.5246C18.2629 11.3488 18.5014 11.25 18.75 11.25Z" stroke="white" stroke-width="2" stroke-linecap="round" stroke-linejoin="round"/>
<path d="M5.74682 25.3048C5.55266 25.3302 5.35542 25.2942 5.18278 25.2018C5.01015 25.1093 4.87078 24.9652 4.78425 24.7895C4.69772 24.6139 4.66836 24.4155 4.7003 24.2223C4.73224 24.0291 4.82387 23.8508 4.96233 23.7123C5.1008 23.5739 5.27914 23.4822 5.47233 23.4503C5.66553 23.4184 5.86387 23.4477 6.03953 23.5343C6.21519 23.6208 6.35935 23.7601 6.45176 23.9328C6.54418 24.1054 6.58022 24.3027 6.55483 24.4968C6.52803 24.7017 6.43428 24.892 6.28816 25.0382C6.14203 25.1843 5.95173 25.278 5.74682 25.3048Z" fill="white"/>
<path d="M5.74682 20.6173C5.55266 20.6427 5.35542 20.6067 5.18278 20.5143C5.01015 20.4218 4.87078 20.2777 4.78425 20.102C4.69772 19.9264 4.66836 19.728 4.7003 19.5348C4.73224 19.3416 4.82387 19.1633 4.96233 19.0248C5.1008 18.8864 5.27914 18.7947 5.47233 18.7628C5.66553 18.7309 5.86387 18.7602 6.03953 18.8468C6.21519 18.9333 6.35935 19.0726 6.45176 19.2453C6.54418 19.4179 6.58022 19.6152 6.55483 19.8093C6.52803 20.0142 6.43428 20.2045 6.28816 20.3507C6.14203 20.4968 5.95173 20.5905 5.74682 20.6173Z" fill="white"/>
<path d="M5.74682 15.9298C5.55266 15.9552 5.35542 15.9192 5.18278 15.8268C5.01015 15.7343 4.87078 15.5902 4.78425 15.4145C4.69772 15.2389 4.66836 15.0405 4.7003 14.8473C4.73224 14.6541 4.82387 14.4758 4.96233 14.3373C5.1008 14.1989 5.27914 14.1072 5.47233 14.0753C5.66553 14.0434 5.86387 14.0727 6.03953 14.1592C6.21519 14.2458 6.35935 14.3851 6.45176 14.5578C6.54418 14.7304 6.58022 14.9277 6.55483 15.1218C6.52803 15.3267 6.43428 15.517 6.28816 15.6632C6.14203 15.8093 5.95173 15.903 5.74682 15.9298Z" fill="white"/>
<path d="M5.74682 11.2423C5.55266 11.2677 5.35542 11.2317 5.18278 11.1393C5.01015 11.0468 4.87078 10.9027 4.78425 10.727C4.69772 10.5514 4.66836 10.353 4.7003 10.1598C4.73224 9.96664 4.82387 9.7883 4.96233 9.64983C5.1008 9.51137 5.27914 9.41974 5.47233 9.3878C5.66553 9.35586 5.86387 9.38522 6.03953 9.47175C6.21519 9.55828 6.35935 9.69765 6.45176 9.87028C6.54418 10.0429 6.58022 10.2402 6.55483 10.4343C6.52803 10.6392 6.43428 10.8295 6.28816 10.9757C6.14203 11.1218 5.95173 11.2155 5.74682 11.2423Z" fill="white"/>
<path d="M5.74682 6.55483C5.55266 6.58022 5.35542 6.54418 5.18278 6.45176C5.01015 6.35935 4.87078 6.21519 4.78425 6.03953C4.69772 5.86387 4.66836 5.66553 4.7003 5.47233C4.73224 5.27914 4.82387 5.1008 4.96233 4.96233C5.1008 4.82387 5.27914 4.73224 5.47233 4.7003C5.66553 4.66836 5.86387 4.69772 6.03953 4.78425C6.21519 4.87078 6.35935 5.01015 6.45176 5.18278C6.54418 5.35542 6.58022 5.55266 6.55483 5.74682C6.52803 5.95173 6.43428 6.14203 6.28816 6.28816C6.14203 6.43428 5.95173 6.52803 5.74682 6.55483Z" fill="white"/>
<path d="M10.4343 20.6173C10.2402 20.6427 10.0429 20.6067 9.87028 20.5143C9.69765 20.4218 9.55828 20.2777 9.47175 20.102C9.38522 19.9264 9.35586 19.728 9.3878 19.5348C9.41974 19.3416 9.51137 19.1633 9.64983 19.0248C9.7883 18.8864 9.96664 18.7947 10.1598 18.7628C10.353 18.7309 10.5514 18.7602 10.727 18.8468C10.9027 18.9333 11.0468 19.0726 11.1393 19.2453C11.2317 19.4179 11.2677 19.6152 11.2423 19.8093C11.2155 20.0142 11.1218 20.2045 10.9757 20.3507C10.8295 20.4968 10.6392 20.5905 10.4343 20.6173Z" fill="white"/>
<path d="M10.4343 15.9298C10.2402 15.9552 10.0429 15.9192 9.87028 15.8268C9.69765 15.7343 9.55828 15.5902 9.47175 15.4145C9.38522 15.2389 9.35586 15.0405 9.3878 14.8473C9.41974 14.6541 9.51137 14.4758 9.64983 14.3373C9.7883 14.1989 9.96664 14.1072 10.1598 14.0753C10.353 14.0434 10.5514 14.0727 10.727 14.1592C10.9027 14.2458 11.0468 14.3851 11.1393 14.5578C11.2317 14.7304 11.2677 14.9277 11.2423 15.1218C11.2155 15.3267 11.1218 15.517 10.9757 15.6632C10.8295 15.8093 10.6392 15.903 10.4343 15.9298Z" fill="white"/>
<path d="M10.4343 11.2423C10.2402 11.2677 10.0429 11.2317 9.87028 11.1393C9.69765 11.0468 9.55828 10.9027 9.47175 10.727C9.38522 10.5514 9.35586 10.353 9.3878 10.1598C9.41974 9.96664 9.51137 9.7883 9.64983 9.64983C9.7883 9.51137 9.96664 9.41974 10.1598 9.3878C10.353 9.35586 10.5514 9.38522 10.727 9.47175C10.9027 9.55828 11.0468 9.69765 11.1393 9.87028C11.2317 10.0429 11.2677 10.2402 11.2423 10.4343C11.2155 10.6392 11.1218 10.8295 10.9757 10.9757C10.8295 11.1218 10.6392 11.2155 10.4343 11.2423Z" fill="white"/>
<path d="M10.4343 6.55483C10.2402 6.58022 10.0429 6.54418 9.87028 6.45176C9.69765 6.35935 9.55828 6.21519 9.47175 6.03953C9.38522 5.86387 9.35586 5.66553 9.3878 5.47233C9.41974 5.27914 9.51137 5.1008 9.64983 4.96233C9.7883 4.82387 9.96664 4.73224 10.1598 4.7003C10.353 4.66836 10.5514 4.69772 10.727 4.78425C10.9027 4.87078 11.0468 5.01015 11.1393 5.18278C11.2317 5.35542 11.2677 5.55266 11.2423 5.74682C11.2155 5.95173 11.1218 6.14203 10.9757 6.28816C10.8295 6.43428 10.6392 6.52803 10.4343 6.55483Z" fill="white"/>
<path d="M15.1218 25.3048C14.9277 25.3302 14.7304 25.2942 14.5578 25.2018C14.3851 25.1093 14.2458 24.9652 14.1592 24.7895C14.0727 24.6139 14.0434 24.4155 14.0753 24.2223C14.1072 24.0291 14.1989 23.8508 14.3373 23.7123C14.4758 23.5739 14.6541 23.4822 14.8473 23.4503C15.0405 23.4184 15.2389 23.4477 15.4145 23.5343C15.5902 23.6208 15.7343 23.7601 15.8268 23.9328C15.9192 24.1054 15.9552 24.3027 15.9298 24.4968C15.903 24.7017 15.8093 24.892 15.6632 25.0382C15.517 25.1843 15.3267 25.278 15.1218 25.3048Z" fill="white"/>
<path d="M15.1218 20.6173C14.9277 20.6427 14.7304 20.6067 14.5578 20.5143C14.3851 20.4218 14.2458 20.2777 14.1592 20.102C14.0727 19.9264 14.0434 19.728 14.0753 19.5348C14.1072 19.3416 14.1989 19.1633 14.3373 19.0248C14.4758 18.8864 14.6541 18.7947 14.8473 18.7628C15.0405 18.7309 15.2389 18.7602 15.4145 18.8468C15.5902 18.9333 15.7343 19.0726 15.8268 19.2453C15.9192 19.4179 15.9552 19.6152 15.9298 19.8093C15.903 20.0142 15.8093 20.2045 15.6632 20.3507C15.517 20.4968 15.3267 20.5905 15.1218 20.6173Z" fill="white"/>
<path d="M15.1218 15.9298C14.9277 15.9552 14.7304 15.9192 14.5578 15.8268C14.3851 15.7343 14.2458 15.5902 14.1592 15.4145C14.0727 15.2389 14.0434 15.0405 14.0753 14.8473C14.1072 14.6541 14.1989 14.4758 14.3373 14.3373C14.4758 14.1989 14.6541 14.1072 14.8473 14.0753C15.0405 14.0434 15.2389 14.0727 15.4145 14.1592C15.5902 14.2458 15.7343 14.3851 15.8268 14.5578C15.9192 14.7304 15.9552 14.9277 15.9298 15.1218C15.903 15.3267 15.8093 15.517 15.6632 15.6632C15.517 15.8093 15.3267 15.903 15.1218 15.9298Z" fill="white"/>
<path d="M15.6642 10.9762C16.0292 10.6112 16.0277 10.018 15.6609 9.65119C15.2941 9.28439 14.7009 9.2829 14.3359 9.64787C13.9709 10.0128 13.9724 10.6061 14.3392 10.9729C14.706 11.3397 15.2992 11.3412 15.6642 10.9762Z" fill="white"/>
<path d="M15.1218 6.55483C14.9277 6.58022 14.7304 6.54418 14.5578 6.45176C14.3851 6.35935 14.2458 6.21519 14.1592 6.03953C14.0727 5.86387 14.0434 5.66553 14.0753 5.47233C14.1072 5.27914 14.1989 5.1008 14.3373 4.96233C14.4758 4.82387 14.6541 4.73224 14.8473 4.7003C15.0405 4.66836 15.2389 4.69772 15.4145 4.78425C15.5902 4.87078 15.7343 5.01015 15.8268 5.18278C15.9192 5.35542 15.9552 5.55266 15.9298 5.74682C15.903 5.95173 15.8093 6.14203 15.6632 6.28816C15.517 6.43428 15.3267 6.52803 15.1218 6.55483Z" fill="white"/>
<path d="M23.4375 23.4375C23.2521 23.4375 23.0708 23.4925 22.9167 23.5955C22.7625 23.6985 22.6423 23.8449 22.5714 24.0162C22.5004 24.1875 22.4818 24.376 22.518 24.5579C22.5542 24.7398 22.6435 24.9068 22.7746 25.0379C22.9057 25.169 23.0727 25.2583 23.2546 25.2945C23.4365 25.3307 23.625 25.3121 23.7963 25.2411C23.9676 25.1702 24.114 25.05 24.217 24.8958C24.32 24.7417 24.375 24.5604 24.375 24.375C24.375 24.1264 24.2762 23.8879 24.1004 23.7121C23.9246 23.5363 23.6861 23.4375 23.4375 23.4375Z" fill="white"/>
<path d="M23.4375 18.75C23.2521 18.75 23.0708 18.805 22.9167 18.908C22.7625 19.011 22.6423 19.1574 22.5714 19.3287C22.5004 19.5 22.4818 19.6885 22.518 19.8704C22.5542 20.0523 22.6435 20.2193 22.7746 20.3504C22.9057 20.4815 23.0727 20.5708 23.2546 20.607C23.4365 20.6432 23.625 20.6246 23.7963 20.5536C23.9676 20.4827 24.114 20.3625 24.217 20.2083C24.32 20.0542 24.375 19.8729 24.375 19.6875C24.375 19.4389 24.2762 19.2004 24.1004 19.0246C23.9246 18.8488 23.6861 18.75 23.4375 18.75Z" fill="white"/>
<path d="M23.4375 14.0625C23.2521 14.0625 23.0708 14.1175 22.9167 14.2205C22.7625 14.3235 22.6423 14.4699 22.5714 14.6412C22.5004 14.8125 22.4818 15.001 22.518 15.1829C22.5542 15.3648 22.6435 15.5318 22.7746 15.6629C22.9057 15.794 23.0727 15.8833 23.2546 15.9195C23.4365 15.9557 23.625 15.9371 23.7963 15.8661C23.9676 15.7952 24.114 15.675 24.217 15.5208C24.32 15.3667 24.375 15.1854 24.375 15C24.375 14.7514 24.2762 14.5129 24.1004 14.3371C23.9246 14.1613 23.6861 14.0625 23.4375 14.0625Z" fill="white"/>
<path d="M19.6875 23.4375C19.5021 23.4375 19.3208 23.4925 19.1667 23.5955C19.0125 23.6985 18.8923 23.8449 18.8214 24.0162C18.7504 24.1875 18.7318 24.376 18.768 24.5579C18.8042 24.7398 18.8935 24.9068 19.0246 25.0379C19.1557 25.169 19.3227 25.2583 19.5046 25.2945C19.6865 25.3307 19.875 25.3121 20.0463 25.2411C20.2176 25.1702 20.364 25.05 20.467 24.8958C20.57 24.7417 20.625 24.5604 20.625 24.375C20.625 24.1264 20.5262 23.8879 20.3504 23.7121C20.1746 23.5363 19.9361 23.4375 19.6875 23.4375Z" fill="white"/>
<path d="M19.6875 18.75C19.5021 18.75 19.3208 18.805 19.1667 18.908C19.0125 19.011 18.8923 19.1574 18.8214 19.3287C18.7504 19.5 18.7318 19.6885 18.768 19.8704C18.8042 20.0523 18.8935 20.2193 19.0246 20.3504C19.1557 20.4815 19.3227 20.5708 19.5046 20.607C19.6865 20.6432 19.875 20.6246 20.0463 20.5536C20.2176 20.4827 20.364 20.3625 20.467 20.2083C20.57 20.0542 20.625 19.8729 20.625 19.6875C20.625 19.4389 20.5262 19.2004 20.3504 19.0246C20.1746 18.8488 19.9361 18.75 19.6875 18.75Z" fill="white"/>
<path d="M19.6875 14.0625C19.5021 14.0625 19.3208 14.1175 19.1667 14.2205C19.0125 14.3235 18.8923 14.4699 18.8214 14.6412C18.7504 14.8125 18.7318 15.001 18.768 15.1829C18.8042 15.3648 18.8935 15.5318 19.0246 15.6629C19.1557 15.794 19.3227 15.8833 19.5046 15.9195C19.6865 15.9557 19.875 15.9371 20.0463 15.8661C20.2176 15.7952 20.364 15.675 20.467 15.5208C20.57 15.3667 20.625 15.1854 20.625 15C20.625 14.7514 20.5262 14.5129 20.3504 14.3371C20.1746 14.1613 19.9361 14.0625 19.6875 14.0625Z" fill="white"/>
</svg>
