<svg width="30" height="30" viewBox="0 0 30 30" fill="none" xmlns="http://www.w3.org/2000/svg">
<g clip-path="url(#clip0_27_500)">
<path d="M19.6875 0.9375H10.3125C8.7592 0.9375 7.5 2.1967 7.5 3.75V26.25C7.5 27.8033 8.7592 29.0625 10.3125 29.0625H19.6875C21.2408 29.0625 22.5 27.8033 22.5 26.25V3.75C22.5 2.1967 21.2408 0.9375 19.6875 0.9375Z" stroke="white" stroke-width="2" stroke-linecap="round" stroke-linejoin="round"/>
<path d="M10.3125 0.9375H11.7188C11.8431 0.9375 11.9623 0.986886 12.0502 1.07479C12.1381 1.1627 12.1875 1.28193 12.1875 1.40625C12.1875 1.65489 12.2863 1.89335 12.4621 2.06916C12.6379 2.24498 12.8764 2.34375 13.125 2.34375H16.875C17.1236 2.34375 17.3621 2.24498 17.5379 2.06916C17.7137 1.89335 17.8125 1.65489 17.8125 1.40625C17.8125 1.28193 17.8619 1.1627 17.9498 1.07479C18.0377 0.986886 18.1569 0.9375 18.2812 0.9375H19.6875" stroke="white" stroke-width="2" stroke-linecap="round" stroke-linejoin="round"/>
</g>
<defs>
<clipPath id="clip0_27_500">
<rect width="30" height="30" fill="white"/>
</clipPath>
</defs>
</svg>
