<svg width="22" height="28" viewBox="0 0 22 28" fill="none" xmlns="http://www.w3.org/2000/svg">
<path d="M18.75 0.25H6.25C4.875 0.25 3.75 1.375 3.75 2.75V6.5H6.25V4H18.75V24H6.25V21.5H3.75V25.25C3.75 26.625 4.875 27.75 6.25 27.75H18.75C20.125 27.75 21.25 26.625 21.25 25.25V2.75C21.25 1.375 20.125 0.25 18.75 0.25ZM8.5 12.75V10.875C8.5 9.125 6.75 7.75 5 7.75C3.25 7.75 1.5 9.125 1.5 10.875V12.75C0.75 12.75 0 13.5 0 14.25V18.625C0 19.5 0.75 20.25 1.5 20.25H8.375C9.25 20.25 10 19.5 10 18.75V14.375C10 13.5 9.25 12.75 8.5 12.75ZM6.875 12.75H3.125V10.875C3.125 9.875 4 9.25 5 9.25C6 9.25 6.875 9.875 6.875 10.875V12.75Z" fill="white"/>
</svg>
