<svg width="30" height="30" viewBox="0 0 30 30" fill="none" xmlns="http://www.w3.org/2000/svg">
<path d="M23.5546 9.84375C23.3829 12.2268 21.6151 14.0625 19.6874 14.0625C17.7597 14.0625 15.989 12.2273 15.8202 9.84375C15.6444 7.36465 17.3653 5.625 19.6874 5.625C22.0095 5.625 23.7304 7.40977 23.5546 9.84375Z" stroke="white" stroke-width="2" stroke-linecap="round" stroke-linejoin="round"/>
<path d="M19.6875 17.8125C15.869 17.8125 12.1969 19.7092 11.277 23.4029C11.1551 23.8916 11.4615 24.375 11.9637 24.375H27.4119C27.9141 24.375 28.2188 23.8916 28.0986 23.4029C27.1787 19.65 23.5067 17.8125 19.6875 17.8125Z" stroke="white" stroke-width="2" stroke-miterlimit="10"/>
<path d="M11.7187 10.8949C11.5816 12.798 10.1531 14.2969 8.61323 14.2969C7.07339 14.2969 5.64253 12.7986 5.50776 10.8949C5.36772 8.91504 6.75815 7.5 8.61323 7.5C10.4683 7.5 11.8587 8.95137 11.7187 10.8949Z" stroke="white" stroke-width="2" stroke-linecap="round" stroke-linejoin="round"/>
<path d="M12.0704 17.9297C11.0128 17.4451 9.84794 17.2588 8.61337 17.2588C5.56649 17.2588 2.63094 18.7734 1.89559 21.7236C1.79891 22.1139 2.04383 22.5 2.44462 22.5H9.02352" stroke="white" stroke-width="2" stroke-miterlimit="10" stroke-linecap="round"/>
</svg>
