<svg width="30" height="30" viewBox="0 0 30 30" fill="none" xmlns="http://www.w3.org/2000/svg">
<path d="M26.25 20.0021V9.99661C26.2496 9.66913 26.1634 9.34747 26.0001 9.06364C25.8367 8.77981 25.6019 8.54371 25.3189 8.37884L16.4127 3.19564C15.9836 2.94582 15.4959 2.81421 14.9994 2.81421C14.5029 2.81421 14.0152 2.94582 13.5861 3.19564L4.68105 8.37884C4.3981 8.54371 4.16326 8.77981 3.99991 9.06364C3.83656 9.34747 3.7504 9.66913 3.75 9.99661V20.0021C3.75019 20.3298 3.83626 20.6517 3.99962 20.9357C4.16298 21.2198 4.39793 21.4561 4.68105 21.621L13.5873 26.8042C14.0165 27.0537 14.5041 27.1851 15.0006 27.1851C15.497 27.1851 15.9846 27.0537 16.4139 26.8042L25.3201 21.621C25.603 21.4559 25.8377 21.2196 26.0009 20.9355C26.164 20.6515 26.2499 20.3296 26.25 20.0021Z" stroke="white" stroke-width="2" stroke-linecap="round" stroke-linejoin="round"/>
<path d="M4.04297 9.02295L15 15.4683L25.957 9.02295" stroke="white" stroke-width="2" stroke-linecap="round" stroke-linejoin="round"/>
<path d="M15 27.187V15.4683" stroke="white" stroke-width="2" stroke-linecap="round" stroke-linejoin="round"/>
</svg>
