<svg width="26" height="26" viewBox="0 0 26 26" fill="none" xmlns="http://www.w3.org/2000/svg">
<path d="M18.2112 6.56494L4.39207 20.4181L3.55469 22.4453L5.58187 21.6079L19.435 7.78877L18.2112 6.56494Z" stroke="#0D455C" stroke-width="3" stroke-linecap="round" stroke-linejoin="round"/>
<path d="M20.9762 3.80053L20.3775 4.39873L21.6013 5.62256L22.2 5.02385C22.3571 4.86664 22.4454 4.65348 22.4454 4.43123C22.4454 4.20898 22.3571 3.99582 22.2 3.83861L22.162 3.80053C22.0841 3.72266 21.9917 3.6609 21.8899 3.61876C21.7882 3.57662 21.6792 3.55493 21.5691 3.55493C21.459 3.55493 21.3499 3.57662 21.2482 3.61876C21.1465 3.6609 21.0541 3.72266 20.9762 3.80053Z" stroke="#0D455C" stroke-width="3" stroke-linecap="round" stroke-linejoin="round"/>
</svg>
