<svg width="26" height="28" viewBox="0 0 26 28" fill="none" xmlns="http://www.w3.org/2000/svg">
<g filter="url(#filter0_d_306_1246)">
<path d="M18.2112 6.56494L4.39207 20.4181L3.55469 22.4453L5.58187 21.6079L19.435 7.78877L18.2112 6.56494Z" stroke="#0D455C" stroke-width="3" stroke-linecap="round" stroke-linejoin="round"/>
<path d="M20.9762 3.80053L20.3774 4.39873L21.6013 5.62256L22.2 5.02385C22.3571 4.86664 22.4453 4.65348 22.4453 4.43123C22.4453 4.20898 22.3571 3.99582 22.2 3.83861L22.1619 3.80053C22.084 3.72266 21.9916 3.6609 21.8899 3.61876C21.7882 3.57662 21.6791 3.55493 21.569 3.55493C21.4589 3.55493 21.3499 3.57662 21.2482 3.61876C21.1464 3.6609 21.054 3.72266 20.9762 3.80053Z" stroke="#0D455C" stroke-width="3" stroke-linecap="round" stroke-linejoin="round"/>
</g>
<defs>
<filter id="filter0_d_306_1246" x="-2" y="0" width="30" height="30" filterUnits="userSpaceOnUse" color-interpolation-filters="sRGB">
<feFlood flood-opacity="0" result="BackgroundImageFix"/>
<feColorMatrix in="SourceAlpha" type="matrix" values="0 0 0 0 0 0 0 0 0 0 0 0 0 0 0 0 0 0 127 0" result="hardAlpha"/>
<feOffset dy="2"/>
<feGaussianBlur stdDeviation="1"/>
<feColorMatrix type="matrix" values="0 0 0 0 0 0 0 0 0 0 0 0 0 0 0 0 0 0 0.4 0"/>
<feBlend mode="normal" in2="BackgroundImageFix" result="effect1_dropShadow_306_1246"/>
<feBlend mode="normal" in="SourceGraphic" in2="effect1_dropShadow_306_1246" result="shape"/>
</filter>
</defs>
</svg>
