<svg width="30" height="30" viewBox="0 0 30 30" fill="none" xmlns="http://www.w3.org/2000/svg">
<path d="M15 17.8125C16.5533 17.8125 17.8125 16.5533 17.8125 15C17.8125 13.4467 16.5533 12.1875 15 12.1875C13.4467 12.1875 12.1875 13.4467 12.1875 15C12.1875 16.5533 13.4467 17.8125 15 17.8125Z" fill="white"/>
<path d="M15 27.1875C16.5533 27.1875 17.8125 25.9283 17.8125 24.375C17.8125 22.8217 16.5533 21.5625 15 21.5625C13.4467 21.5625 12.1875 22.8217 12.1875 24.375C12.1875 25.9283 13.4467 27.1875 15 27.1875Z" fill="white"/>
<path d="M15 8.4375C16.5533 8.4375 17.8125 7.1783 17.8125 5.625C17.8125 4.0717 16.5533 2.8125 15 2.8125C13.4467 2.8125 12.1875 4.0717 12.1875 5.625C12.1875 7.1783 13.4467 8.4375 15 8.4375Z" fill="white"/>
</svg>
