<svg width="75" height="75" viewBox="0 0 75 75" fill="none" xmlns="http://www.w3.org/2000/svg">
<path d="M58.5938 21.6797L55.5 18.0806C52.8769 15.3254 49.7205 13.1329 46.2232 11.6362C42.7258 10.1396 38.9604 9.37027 35.1562 9.37501C19.6289 9.37501 7.03125 21.9727 7.03125 37.5C7.03125 53.0274 19.6289 65.625 35.1562 65.625C40.9732 65.6246 46.647 63.8215 51.3969 60.4637C56.1468 57.1059 59.7394 52.3586 61.6802 46.875" stroke="white" stroke-width="8" stroke-miterlimit="10" stroke-linecap="round"/>
<path d="M67.9687 14.2705V30.4688C67.9687 31.0904 67.7218 31.6865 67.2823 32.126C66.8427 32.5656 66.2466 32.8125 65.625 32.8125H49.4267C47.3379 32.8125 46.292 30.2886 47.7685 28.812L63.9682 12.6123C65.4448 11.1328 67.9687 12.1816 67.9687 14.2705Z" fill="white"/>
</svg>
