<svg width="34" height="34" viewBox="0 0 34 34" fill="none" xmlns="http://www.w3.org/2000/svg">
  <path d="M16.2115 17.005H5.35535M5.04763 18.5569L3.25405 24.4C2.27172 27.6002 1.78056 29.2003 2.13304 30.1855C2.43913 31.0413 3.09656 31.69 3.90779 31.9371C4.84194 32.2213 6.25287 31.5288 9.07473 30.1441L27.1655 21.2657C29.9198 19.9139 31.297 19.2381 31.7226 18.2992C32.0925 17.4835 32.0925 16.5262 31.7226 15.7105C31.297 14.7718 29.9198 14.0959 27.1655 12.7441L9.04352 3.85052C6.23016 2.46984 4.8235 1.77949 3.89028 2.06269C3.07981 2.30862 2.42245 2.95564 2.1153 3.80976C1.7616 4.79326 2.24752 6.38988 3.21937 9.58313L5.05111 15.6019C5.21802 16.1503 5.30149 16.4246 5.33443 16.705C5.36367 16.9539 5.36336 17.2059 5.33355 17.4547C5.29994 17.735 5.21584 18.0089 5.04763 18.5569Z" stroke="white" stroke-width="3" stroke-linecap="round" stroke-linejoin="round"/>
  </svg>
