<svg width="24" height="22" viewBox="0 0 24 22" fill="none" xmlns="http://www.w3.org/2000/svg">
<path d="M19.9742 9.50284L15.8242 9.51284C15.6642 9.50284 15.5142 9.53284 15.3742 9.59284L14.7842 9.85284L12.9542 5.75284C12.3942 4.49284 10.9142 3.92284 9.65421 4.48284C8.39421 5.04284 7.82421 6.52284 8.38421 7.78284L11.6842 15.2328L9.81421 15.6228C9.62421 15.6728 8.82421 15.8928 8.45421 16.8328L7.75421 18.6928L14.5342 21.3628C15.0242 21.5528 15.5842 21.5428 16.0642 21.3228L22.0542 18.6728C22.9442 18.2728 23.4242 17.2928 23.1842 16.3528L21.8242 11.0128C21.6042 10.1528 20.8542 9.54284 19.9742 9.50284ZM21.2442 16.8428L15.2542 19.5028L10.3342 17.5428L14.5142 16.6628L10.2142 6.96284C10.1042 6.71284 10.2142 6.41284 10.4642 6.30284C10.7142 6.19284 11.0142 6.30284 11.1242 6.55284L13.6242 12.2028L15.2342 11.4928L19.8842 11.5028L21.2442 16.8428ZM1.81421 5.06284L0.754211 4.00284L4.25421 0.502838L7.75421 4.00284L6.69421 5.06284L5.07421 3.44284C4.86421 4.26284 4.75421 5.12284 4.75421 6.00284C4.75421 8.42284 5.57421 10.6528 6.95421 12.4328L5.88421 13.5028C4.24421 11.4528 3.25421 8.84284 3.25421 6.00284C3.25421 5.08284 3.35421 4.18284 3.55421 3.32284L1.81421 5.06284Z" fill="#0D455C"/>
</svg>
