<svg width="30" height="30" viewBox="0 0 30 30" fill="none" xmlns="http://www.w3.org/2000/svg">
  <path fill-rule="evenodd" clip-rule="evenodd" d="M11.9694 24.0001C11.9694 25.5001 13.3256 27.0001 15 27.0001C16.6744 27.0001 18.0306 25.5001 18.0306 24.0001C18.0306 19.5002 11.9694 19.5002 11.9694 24.0001ZM8.57056 17.6358L10.7147 19.7583C13.0771 17.4183 16.9229 17.4183 19.2853 19.7583L21.4294 17.6358C17.8776 14.1213 12.1224 14.1213 8.57056 17.6358ZM0 9.15029L2.14264 11.2728C9.23275 4.25446 20.7673 4.25446 27.8574 11.2728L30 9.15029C21.7158 0.949905 8.28417 0.949905 0 9.15029ZM25.7147 13.3939L23.5721 15.5147C18.8458 10.8362 11.1542 10.8362 6.42792 15.5147L4.28528 13.3939C10.2025 7.53653 19.7975 7.53653 25.7147 13.3939Z" fill="#fff"/>
  </svg>
