<svg width="30" height="30" viewBox="0 0 30 30" fill="none" xmlns="http://www.w3.org/2000/svg">
<path d="M26.25 20.0022V9.99674C26.2496 9.66926 26.1634 9.34759 26.0001 9.06376C25.8367 8.77993 25.6019 8.54383 25.3189 8.37896L16.4127 3.19576C15.9836 2.94594 15.4959 2.81433 14.9994 2.81433C14.5029 2.81433 14.0152 2.94594 13.5861 3.19576L4.68105 8.37896C4.3981 8.54383 4.16326 8.77993 3.99991 9.06376C3.83656 9.34759 3.7504 9.66926 3.75 9.99674V20.0022C3.75019 20.3299 3.83626 20.6518 3.99962 20.9358C4.16298 21.2199 4.39793 21.4562 4.68105 21.6211L13.5873 26.8044C14.0165 27.0538 14.5041 27.1852 15.0006 27.1852C15.497 27.1852 15.9846 27.0538 16.4139 26.8044L25.3201 21.6211C25.603 21.456 25.8377 21.2197 26.0009 20.9356C26.164 20.6516 26.2499 20.3298 26.25 20.0022Z" stroke="white" stroke-width="2" stroke-linecap="round" stroke-linejoin="round"/>
<path d="M4.04297 9.02283L15 15.4681L25.957 9.02283" stroke="white" stroke-width="2" stroke-linecap="round" stroke-linejoin="round"/>
<path d="M15 27.1869V15.4681" stroke="white" stroke-width="2" stroke-linecap="round" stroke-linejoin="round"/>
</svg>
